<?xml version="1.0" encoding="UTF-8" standalone="no"?>
<!-- Created with Inkscape (http://www.inkscape.org/) -->

<svg
   version="1.1"
   id="svg1"
   width="800"
   height="800"
   viewBox="0 0 800 800"
   sodipodi:docname="splice_logo_acronyn_black.svg"
   inkscape:version="1.4.2 (f4327f4, 2025-05-13)"
   inkscape:export-filename="splice_logo_acronym_black.png"
   inkscape:export-xdpi="300"
   inkscape:export-ydpi="300"
   xmlns:inkscape="http://www.inkscape.org/namespaces/inkscape"
   xmlns:sodipodi="http://sodipodi.sourceforge.net/DTD/sodipodi-0.dtd"
   xmlns="http://www.w3.org/2000/svg"
   xmlns:svg="http://www.w3.org/2000/svg">
  <defs
     id="defs1" />
  <sodipodi:namedview
     id="namedview1"
     pagecolor="#ffffff"
     bordercolor="#000000"
     borderopacity="0.25"
     inkscape:showpageshadow="2"
     inkscape:pageopacity="0.0"
     inkscape:pagecheckerboard="0"
     inkscape:deskcolor="#d1d1d1"
     inkscape:zoom="0.56140411"
     inkscape:cx="480.93698"
     inkscape:cy="456.89014"
     inkscape:window-width="1920"
     inkscape:window-height="1009"
     inkscape:window-x="1912"
     inkscape:window-y="-8"
     inkscape:window-maximized="1"
     inkscape:current-layer="g1" />
  <g
     inkscape:groupmode="layer"
     inkscape:label="Image"
     id="g1">
    <g
       id="g3"
       transform="translate(0,-27.837968)">
      <path
         style="fill:#000000;fill-opacity:1;stroke-width:0.819975"
         d="m 470.87668,576.10804 c -1.7969,-0.99179 -5.77211,-5.74867 -11.51242,-13.77614 -5.98388,-8.36809 -9.46512,-12.50649 -10.96393,-13.03359 -1.50934,-0.53081 -6.1148,-0.27907 -14.72675,0.80498 -14.98894,1.88677 -45.99465,2.16737 -57.62925,0.52154 -48.61069,-6.87647 -89.9562,-27.46172 -124.66514,-62.06872 -26.50747,-26.42963 -44.49071,-56.93463 -54.55375,-92.5397 -6.03692,-21.35985 -7.72401,-32.58778 -8.64215,-57.51567 -0.29898,-8.11775 -0.86651,-15.38756 -1.26116,-16.15516 -0.39465,-0.7676 -7.69335,-4.91275 -16.2193,-9.21145 -9.33274,-4.70545 -16.18223,-8.68088 -17.21167,-9.9896 -1.11758,-1.42077 -1.70991,-3.36837 -1.70991,-5.62223 0,-3.29131 13.76043,-52.87867 15.78231,-56.87347 2.10534,-4.15973 3.89255,-4.4014 24.35747,-3.29358 15.39595,0.8334 18.9904,0.82305 20.05177,-0.0578 0.71125,-0.5903 4.11108,-5.36619 7.55517,-10.6131 3.4441,-5.24692 9.35092,-13.82051 13.12628,-19.05245 4.39028,-6.08408 6.8643,-10.278 6.8643,-11.6363 0,-1.16803 -3.56689,-8.6325 -7.92642,-16.58769 -8.41095,-15.34813 -9.10225,-17.71433 -6.29249,-21.53797 1.57286,-2.14041 37.2673,-31.40553 44.29573,-36.31712 4.43749,-3.101 8.05701,-3.14336 11.99562,-0.14037 1.62662,1.24021 8.10315,7.12806 14.39229,13.0841 6.28914,5.95604 12.3782,11.06595 13.53128,11.35536 1.47517,0.37024 4.84002,-0.5664 11.35384,-3.16046 10.6815,-4.2538 20.42248,-7.40631 29.75672,-9.63031 3.99971,-0.95299 7.06332,-2.17668 7.85,-3.13551 0.74045,-0.90249 2.76226,-9.02807 4.74497,-19.06983 1.90012,-9.62351 3.99817,-18.326619 4.66234,-19.340263 0.66415,-1.013637 2.4033,-2.484654 3.86475,-3.268936 2.3788,-1.276561 5.4922,-1.41863 29.71636,-1.356041 29.52148,0.07626 31.61006,0.365315 34.49889,4.774229 0.7796,1.189832 2.8291,9.246161 4.55442,17.902941 4.01127,20.12643 4.24418,20.63065 10.32208,22.34547 13.48318,3.80411 19.6683,5.8476 29.9085,9.88139 6.1743,2.43215 12.20635,4.4221 13.40455,4.4221 1.63145,0 4.1662,-1.9069 10.09335,-7.59322 21.54696,-20.67148 21.06737,-20.32982 26.32527,-18.75452 3.37466,1.01108 40.82243,29.89452 46.9825,36.23759 4.64756,4.78561 4.3563,6.11326 -5.00836,22.82965 -4.44579,7.93597 -8.32599,15.19922 -8.62264,16.14055 -0.35577,1.12892 0.10813,2.66404 1.36285,4.50986 1.04623,1.5391 5.23086,7.5952 9.29918,13.45803 4.06832,5.86282 9.1278,13.46743 11.24326,16.89914 6.19573,10.05068 4.00284,9.37477 26.32077,8.11284 17.63814,-0.99731 19.374,-0.97483 21.28248,0.27566 1.14289,0.74884 2.45672,2.06923 2.91964,2.9342 0.46291,0.86498 4.19007,12.94935 8.28256,26.85418 6.25329,21.2464 7.38815,25.97635 7.11044,29.63508 -0.21874,2.8816 -0.86078,4.86698 -1.89892,5.87199 -0.86264,0.83512 -8.21543,4.83904 -16.3395,8.89763 -8.12408,4.05858 -15.49402,8.1781 -16.37765,9.1545 -1.40768,1.55548 -1.67914,3.5188 -2.19258,15.85788 -0.6764,16.25522 -0.83118,17.86946 -3.68759,38.46272 -1.76711,12.73991 -1.95996,15.77234 -1.1304,17.77507 0.60875,1.46964 5.78598,6.3691 13.2285,12.51875 13.39906,11.07144 14.63204,12.80713 13.11023,18.45544 -1.39133,5.16399 -22.60274,47.27504 -25.44051,50.5071 -4.01784,4.57606 -5.76762,4.58139 -24.20189,0.0738 l -16.1328,-3.94487 -7.53069,8.15262 c -9.48103,10.26403 -19.80358,20.21132 -27.2101,26.22087 -6.8213,5.53475 -7.78975,6.68323 -7.78975,9.23793 0,1.06607 1.51879,8.55039 3.37508,16.63183 3.63786,15.83755 3.7104,18.96662 0.50724,21.87891 -1.00781,0.9163 -6.81373,3.78886 -12.90204,6.38348 -6.08832,2.59463 -17.34247,7.49144 -25.00923,10.88181 -15.40183,6.81096 -19.05186,7.6487 -23.244,5.33489 z m -56.20763,-54.35186 c 49.56089,-3.88508 94.69356,-27.0826 126.30695,-64.91994 27.36743,-32.75541 42.33157,-74.90775 42.30038,-119.15546 -0.0149,-21.21877 -2.48889,-36.96902 -8.77425,-55.8611 -8.90447,-26.76434 -22.67975,-48.82855 -43.4634,-69.61635 -35.86401,-35.87121 -79.32129,-54.04314 -129.1652,-54.01121 -17.78979,0.0114 -28.74173,1.28192 -44.73649,5.18983 -71.61416,17.4971 -126.39228,78.41837 -136.07887,151.33953 -1.56129,11.75352 -1.81091,36.44957 -0.46827,46.32857 5.62054,41.3551 22.02978,75.43008 50.49416,104.85468 34.51113,35.67535 78.91515,55.1719 128.82545,56.56361 2.30218,0.0642 8.94398,-0.25626 14.75954,-0.71216 z m -30.01499,-25.49452 c -29.10674,-3.27248 -59.4366,-15.91667 -82.1712,-34.25628 -38.55161,-31.09895 -61.14658,-80.33892 -58.55261,-127.60044 1.48577,-27.07021 6.66053,-46.97335 17.79265,-68.43379 6.81553,-13.13896 14.25113,-23.28933 25.76417,-35.17087 25.98807,-26.8199 57.87012,-42.56379 95.06181,-46.9431 10.39383,-1.22386 37.2361,-0.50993 48.84374,1.29914 16.88884,2.63212 40.19855,12.10767 57.06556,23.19748 26.77079,17.60142 47.87056,43.50933 59.7324,73.34402 24.73773,62.21991 6.4461,135.18352 -44.60113,177.90971 -30.00181,25.11132 -64.93832,37.85065 -102.70857,37.45193 -5.54235,-0.0585 -12.84442,-0.41752 -16.22682,-0.7978 z m 30.45718,-22.09016 c 16.349,-1.64621 30.45625,-5.79197 46.21045,-13.58012 37.44053,-18.5089 62.58122,-50.76098 72.21032,-92.63602 3.00728,-13.07813 3.74657,-35.48558 1.61852,-49.05658 -6.8972,-43.9845 -33.50345,-80.36965 -73.18794,-100.0875 -29.08476,-14.45121 -64.02731,-17.71111 -96.82066,-9.03265 -49.79565,13.17795 -85.92137,51.59665 -96.67355,102.80965 -1.90731,9.08456 -2.17353,12.26475 -2.20345,26.32245 -0.0285,13.37126 0.26709,17.50076 1.80493,25.21865 8.30421,41.6759 35.00082,77.02896 72.26687,95.69963 23.91794,11.98312 49.49107,16.88832 74.77451,14.34249 z m -53.21897,-45.8791 c -5.59001,-3.40827 -7.48105,-10.17206 -4.3018,-15.38645 6.21971,-10.20112 21.63915,-6.25182 21.63915,5.54233 0,8.97271 -9.71724,14.49015 -17.33735,9.84412 z m 71.29023,-18.49847 c -5.91571,-2.99438 -8.58866,-7.10018 -9.01866,-13.85312 -0.65455,-10.27958 6.31015,-17.67128 16.65044,-17.67128 9.81238,0 16.81753,6.9311 16.81753,16.63978 0,12.9329 -12.84996,20.75588 -24.44931,14.88462 z M 349.80514,372.1344 c -20.38921,-4.49607 -35.50887,-18.09032 -41.96761,-37.73352 -2.7846,-8.46892 -3.15516,-23.29489 -0.77878,-31.15905 4.59378,-15.20215 15.12116,-27.86425 28.56623,-34.35881 14.28836,-6.90193 28.07995,-7.90634 42.1186,-3.06742 27.29633,9.40864 42.50261,38.26883 35.15583,66.72265 -3.70434,14.34678 -15.13003,28.47956 -28.25552,34.95011 -11.25029,5.54612 -23.40576,7.16717 -34.83875,4.64604 z m 125.86611,-33.77119 c -8.32933,-3.42857 -11.34268,-13.6265 -6.06935,-20.54021 5.79282,-7.59477 16.65691,-6.8997 22.31738,1.42786 1.59415,2.34529 1.87576,3.61927 1.58917,7.18927 -0.58023,7.22798 -5.14364,11.75655 -12.26837,12.1747 -2.38638,0.14007 -4.89235,0.0268 -5.56883,-0.25162 z M 434.33963,275.5542 c -3.91099,-2.23641 -6.1171,-5.08871 -7.01496,-9.06968 -1.37142,-6.08069 1.29774,-11.82333 7.01496,-15.09259 10.03067,-5.73581 22.66527,3.34756 20.51114,14.74605 -1.74895,9.25449 -12.31295,14.10419 -20.51114,9.41622 z"
         id="path1" />
      <g
         id="g2"
         transform="matrix(0.92567574,0,0,0.92567574,99.704722,38.002107)">
        <path
           style="fill:#000000;stroke-width:0.909288"
           d="m 495.79149,788.98417 c -37.07496,-5.02618 -63.05678,-36.82828 -61.22512,-74.94047 0.59623,-12.40606 2.34969,-19.40513 7.61611,-30.39915 3.55605,-7.42353 5.28634,-9.7544 12.87308,-17.34186 9.64299,-9.64374 17.35321,-14.33258 30.13318,-18.32517 5.95875,-1.8615 8.65625,-2.13046 21.36827,-2.13046 13.5725,0 15.08429,0.17559 22.53254,2.61694 4.39114,1.4393 10.43318,4.09897 13.42665,5.91037 5.85808,3.54477 16.35009,11.72754 16.28536,12.70112 -0.0218,0.32699 -2.41171,3.20269 -5.31107,6.39039 l -5.2716,5.7959 -5.67369,-4.5719 c -18.76153,-15.1182 -40.65847,-17.81088 -61.44826,-7.55638 -19.02987,9.38641 -30.35806,29.61926 -29.31919,52.36593 1.15489,25.2864 17.83133,46.62941 41.18749,52.71291 6.77675,1.76511 19.17126,1.76238 26.6728,-0.009 7.48218,-1.76375 18.36063,-7.44399 24.43149,-12.75705 2.62793,-2.29996 5.08457,-4.04597 5.45901,-3.88002 0.37453,0.16585 2.83916,2.60383 5.47709,5.41772 l 4.79623,5.11621 -5.25414,4.50116 c -10.6525,9.12588 -18.96103,13.62486 -30.71422,16.63134 -8.13358,2.08054 -20.092,2.82616 -28.04201,1.74838 z m -510.256767,-1.43459 c -12.65651,-2.7085 -27.213872,-9.60481 -35.300393,-16.72282 -2.395122,-2.10827 -4.15323,-4.35839 -3.90691,-5.00035 0.24632,-0.64187 2.364153,-3.6347 4.706288,-6.65072 l 4.258427,-5.48365 5.560272,4.49907 c 18.134785,14.67347 44.2955712,20.00126 61.619023,12.54891 11.029169,-4.74467 16.561689,-18.10639 11.819653,-28.54603 C 30.997459,734.94315 23.42347,730.72151 4.8434092,725.78024 -24.742341,717.91218 -33.215294,714.21283 -39.328276,706.4946 c -5.474811,-6.9125 -6.850143,-11.38301 -6.908976,-22.45742 -0.0479,-9.02506 0.186339,-10.5132 2.398214,-15.23295 4.955757,-10.57494 15.371471,-18.63724 28.00982,-21.68099 6.8986312,-1.66145 26.109993,-1.48086 34.216867,0.32162 8.230006,1.82985 18.265203,6.01931 25.64307,10.7055 l 5.757272,3.6569 -1.928042,2.93136 c -1.060429,1.61226 -2.942321,4.87561 -4.182006,7.25176 l -2.253953,4.32049 -3.427483,-2.16366 c -5.312974,-3.354 -14.677592,-7.92236 -19.977804,-9.74584 -11.7301308,-4.03579 -27.6371078,-4.01015 -35.610055,0.0572 -9.400703,4.79596 -14.291363,17.04007 -10.465023,26.20007 3.506693,8.39482 8.848488,11.28027 33.3711152,18.02636 25.5518728,7.02926 30.6001418,9.24219 38.0922228,16.69818 5.208251,5.18313 6.307059,6.86922 7.956272,12.20875 3.107509,10.061 2.115741,21.24616 -2.725228,30.73521 -4.579716,8.97695 -16.038744,16.64135 -28.937233,19.35458 -8.300523,1.7461 -25.7038938,1.67873 -34.166051,-0.13222 z M 96.922553,717.2262 V 647.211 l 30.233847,0.0182 c 35.02427,0.0209 40.43192,0.56876 49.51501,5.01636 16.44409,8.05202 25.24586,22.76568 25.07501,41.91702 -0.0734,8.23107 -1.94512,15.84727 -5.5159,22.44489 -3.07913,5.68922 -12.3796,14.34802 -18.5331,17.25447 -9.95522,4.70211 -14.1312,5.31734 -39.62956,5.83808 l -23.86882,0.4873 v 23.52701 23.52712 h -8.63824 -8.638247 z m 68.644587,4.56609 c 3.78802,-1.48351 7.00045,-3.68535 10.53853,-7.22347 6.3271,-6.32711 8.49153,-11.97016 8.45605,-22.04634 -0.0431,-12.21966 -5.9226,-21.2007 -17.32434,-26.46294 -4.13688,-1.90923 -5.80121,-2.04299 -28.71488,-2.30823 l -24.32346,-0.28161 v 30.60621 30.6061 l 22.95954,-0.3779 c 21.44367,-0.35299 23.31929,-0.51884 28.40856,-2.51182 z m 75.93228,-4.56609 V 647.211 h 8.18359 8.1836 v 62.30571 62.30563 l 38.13173,-0.24668 38.13175,-0.24678 0.2857,7.95836 0.2857,7.95837 h -46.60103 -46.60104 z m 130.84334,47.51034 c -0.0518,-12.37769 -0.15412,-43.88455 -0.22733,-70.01522 L 371.98232,647.211 h 8.41091 8.41093 v 70.0152 70.01522 h -8.1836 -8.1836 z M 598.8498,717.2262 V 647.211 h 51.41017 51.4103 l -0.26279,7.95627 -0.26269,7.95627 -42.97973,0.23623 -42.9798,0.23624 0.24323,22.49597 0.24315,22.49598 h 37.96324 37.96328 l -4.5e-4,7.95629 -4.5e-4,7.95627 h -37.7355 -37.73548 v 23.64149 23.64151 h 43.19121 43.19123 v 7.72895 7.72895 H 650.67925 598.8498 Z"
           id="path1-1"
           sodipodi:nodetypes="cssssssssscsssscssscssccsssscsssssssssscsscssssssssssccssssssccccccssssscccsscccccccccccccsscccccccsccccccccccccccccccccccccc" />
      </g>
    </g>
  </g>
</svg>
